<svg xmlns="http://www.w3.org/2000/svg"
 xmlns:xlink="http://www.w3.org/1999/xlink"
 width="27px" height="25px"  viewBox="0 0 27 25">
<path fill-rule="evenodd"  fill="$color_svg$"
 d="M2.850586,3.793274 C2.850586,3.793274 5.2894287,3.793274 5.2894287,3.793274 C5.2894287,3.793274 8.763245,17.034973 8.763245,17.034973 C8.862427,17.423706 9.202698,17.692505 9.585632,17.692505 C9.585632,17.692505 20.262268,17.692505 20.262268,17.692505 C20.602661,17.692505 20.90039,17.48352 21.042114,17.154663 C21.042114,17.154663 24.927185,7.7390747 24.927185,7.7390747 C25.040588,7.454895 25.012268,7.140991 24.856201,6.887085 C24.700317,6.6329956 24.430908,6.4834595 24.147278,6.4834595 C24.147278,6.4834595 12.350525,6.4834595 12.350525,6.4834595 C11.882568,6.4834595 11.499756,6.887085 11.499756,7.38031 C11.499756,7.873291 11.882568,8.276978 12.350525,8.276978 C12.350525,8.276978 22.842957,8.276978 22.842957,8.276978 C22.842957,8.276978 19.695251,15.898987 19.695251,15.898987 C19.695251,15.898987 10.223633,15.898987 10.223633,15.898987 C10.223633,15.898987 6.749878,2.6574707 6.749878,2.6574707 C6.6505737,2.2687378 6.3103027,1.9996948 5.92749,1.9996948 C5.92749,1.9996948 2.850586,1.9996948 2.850586,1.9996948 C2.3826904,1.9996948 1.9998779,2.4033813 1.9998779,2.8963623 C1.9998779,3.3897705 2.3826904,3.793274 2.850586,3.793274 ZM8.777405,23.999878 C9.84082,23.999878 10.705688,23.088074 10.705688,21.967041 C10.705688,20.846375 9.84082,19.93457 8.777405,19.93457 C7.713928,19.93457 6.84906,20.846191 6.84906,21.967041 C6.84906,23.088074 7.713928,23.999878 8.777405,23.999878 ZM20.829529,23.999878 C20.87207,23.999878 20.92871,23.999878 20.971252,23.999878 C21.48175,23.955017 21.949646,23.715881 22.289917,23.297485 C22.630249,22.893799 22.786194,22.370667 22.757874,21.817871 C22.68689,20.711792 21.76538,19.859802 20.701904,19.93457 C19.638489,20.009338 18.844482,20.995605 18.915344,22.101624 C18.986267,23.162842 19.822815,23.999878 20.829529,23.999878 Z"/>
</svg>